<svg id="visual" viewBox="0 0 900 600" width="900" height="600" xmlns="http://www.w3.org/2000/svg" xmlns:xlink="http://www.w3.org/1999/xlink" version="1.1"><rect x="0" y="0" width="900" height="600" fill="#002233"></rect><path d="M0 447L21.5 438C43 429 86 411 128.8 415.3C171.7 419.7 214.3 446.3 257.2 465.3C300 484.3 343 495.7 385.8 484.7C428.7 473.7 471.3 440.3 514.2 442.7C557 445 600 483 642.8 480.8C685.7 478.7 728.3 436.3 771.2 415C814 393.7 857 393.3 878.5 393.2L900 393L900 601L878.5 601C857 601 814 601 771.2 601C728.3 601 685.7 601 642.8 601C600 601 557 601 514.2 601C471.3 601 428.7 601 385.8 601C343 601 300 601 257.2 601C214.3 601 171.7 601 128.8 601C86 601 43 601 21.5 601L0 601Z" fill="#0066FF" stroke-linecap="round" stroke-linejoin="miter"></path></svg>